HIERARCHY
ROOT Hips
{
	OFFSET 0.000000 0.000000 0.000000
	CHANNELS 6 Xposition Yposition Zposition Zrotation Yrotation Xrotation 
	JOINT LHipJoint
	{
		OFFSET 0.000000 0.000000 0.000000
		CHANNELS 3 Zrotation Yrotation Xrotation
		JOINT LeftUpLeg
		{
			OFFSET 1.363060 -1.794630 0.839290
			CHANNELS 3 Zrotation Yrotation Xrotation
			JOINT LeftLeg
			{
				OFFSET 2.448110 -6.726130 0.000000
				CHANNELS 3 Zrotation Yrotation Xrotation
				JOINT LeftFoot
				{
					OFFSET 2.562200 -7.039590 0.000000
					CHANNELS 3 Zrotation Yrotation Xrotation
					JOINT LeftToeBase
					{
						OFFSET 0.157640 -0.433110 2.322550
						CHANNELS 3 Zrotation Yrotation Xrotation
						End Site
						{
							OFFSET 0.000000 0.000000 0.000000
						}
					}
				}
			}
		}
	}
	JOINT RHipJoint
	{
		OFFSET 0.000000 0.000000 0.000000
		CHANNELS 3 Zrotation Yrotation Xrotation
		JOINT RightUpLeg
		{
			OFFSET -1.305520 -1.794630 0.839290
			CHANNELS 3 Zrotation Yrotation Xrotation
			JOINT RightLeg
			{
				OFFSET -2.542530 -6.985550 0.000000
				CHANNELS 3 Zrotation Yrotation Xrotation
				JOINT RightFoot
				{
					OFFSET -2.568260 -7.056230 0.000000
					CHANNELS 3 Zrotation Yrotation Xrotation
					JOINT RightToeBase
					{
						OFFSET -0.164730 -0.452590 2.363150
						CHANNELS 3 Zrotation Yrotation Xrotation
						End Site
						{
							OFFSET 0.000000 0.000000 0.000000
						}
					}
				}
			}
		}
	}
	JOINT LowerBack
	{
		OFFSET 0.000000 0.000000 0.000000
		CHANNELS 3 Zrotation Yrotation Xrotation
		JOINT Spine
		{
			OFFSET 0.028270 2.035590 -0.193380
			CHANNELS 3 Zrotation Yrotation Xrotation
			JOINT Spine1
			{
				OFFSET 0.056720 2.048850 -0.042750
				CHANNELS 3 Zrotation Yrotation Xrotation
				JOINT Neck
				{
					OFFSET 0.000000 0.000000 0.000000
					CHANNELS 3 Zrotation Yrotation Xrotation
					JOINT Neck1
					{
						OFFSET -0.054170 1.746240 0.172020
						CHANNELS 3 Zrotation Yrotation Xrotation
						JOINT Head
						{
							OFFSET 0.104070 1.761360 -0.123970
							CHANNELS 3 Zrotation Yrotation Xrotation
							End Site
							{
								OFFSET 0.000000 0.000000 0.000000
							}
						}
					}
				}
				JOINT LeftShoulder
				{
					OFFSET 0.000000 0.000000 0.000000
					CHANNELS 3 Zrotation Yrotation Xrotation
					JOINT LeftArm
					{
						OFFSET 3.362410 1.200890 -0.311210
						CHANNELS 3 Zrotation Yrotation Xrotation
						JOINT LeftForeArm
						{
							OFFSET 4.983000 -0.000000 -0.000000
							CHANNELS 3 Zrotation Yrotation Xrotation
							JOINT LeftHand
							{
								OFFSET 3.483560 -0.000000 -0.000000
								CHANNELS 3 Zrotation Yrotation Xrotation
								JOINT LeftFingerBase
								{
									OFFSET 0.000000 0.000000 0.000000
									CHANNELS 3 Zrotation Yrotation Xrotation
									JOINT LeftHandIndex1
									{
										OFFSET 0.715260 -0.000000 -0.000000
										CHANNELS 3 Zrotation Yrotation Xrotation
										End Site
										{
											OFFSET 0.000000 0.000000 0.000000
										}
									}
								}
								JOINT LThumb
								{
									OFFSET 0.000000 0.000000 0.000000
									CHANNELS 3 Zrotation Yrotation Xrotation
									End Site
									{
										OFFSET 0.000000 0.000000 0.000000
									}
								}
							}
						}
					}
				}
				JOINT RightShoulder
				{
					OFFSET 0.000000 0.000000 0.000000
					CHANNELS 3 Zrotation Yrotation Xrotation
					JOINT RightArm
					{
						OFFSET -3.136600 1.374050 -0.404650
						CHANNELS 3 Zrotation Yrotation Xrotation
						JOINT RightForeArm
						{
							OFFSET -5.241900 -0.000000 -0.000000
							CHANNELS 3 Zrotation Yrotation Xrotation
							JOINT RightHand
							{
								OFFSET -3.444170 -0.000000 -0.000000
								CHANNELS 3 Zrotation Yrotation Xrotation
								JOINT RightFingerBase
								{
									OFFSET 0.000000 0.000000 0.000000
									CHANNELS 3 Zrotation Yrotation Xrotation
									JOINT RightHandIndex1
									{
										OFFSET -0.622530 -0.000000 -0.000000
										CHANNELS 3 Zrotation Yrotation Xrotation
										End Site
										{
											OFFSET 0.000000 0.000000 0.000000
										}
									}
								}
								JOINT RThumb
								{
									OFFSET 0.000000 0.000000 0.000000
									CHANNELS 3 Zrotation Yrotation Xrotation
									End Site
									{
										OFFSET 0.000000 0.000000 0.000000
									}
								}
							}
						}
					}
				}
			}
		}
	}
}
MOTION
Frames: 5
Frame Time: 0.008333
8.863985 17.951086 -27.981250 12.946299 -85.525061 -7.676620 -5.434374 -2.242268 0.846175 0.241244 -2.621170 3.716968 -1.450096 2.039011 2.437548 -1.031093 6.727066 -4.885053 1.336100 7.319100 20.664300 0.038202 2.826823 -3.807118 10.085880 7.726572 14.446467 1.523192 -0.669054 -0.696452 2.435796 -20.582190 -25.740602 -0.053000 -1.485700 4.086300 -0.982796 0.898681 -4.659585 1.117259 1.276073 -4.965209 -1.050051 0.819765 4.384340 -2.557192 6.425253 -7.989900 3.294316 8.553611 6.011290 0.648100 4.424500 0.346600 -1.271817 -7.962655 2.678807 -58.451737 -1.782391 31.015553 14.219876 -21.811193 -3.470087 1.081018 -0.604374 -2.748830 -13.711635 -16.424222 4.074000 -7.125000 0.000000 0.000000 -27.459800 14.721300 22.364100 1.641084 8.548616 3.622324 60.484323 -3.811551 13.377851 -13.475738 18.572398 -3.988046 1.020679 3.161733 12.378610 16.559698 -37.199482 -10.800200 7.125000 0.000000 0.000000 60.374900 -60.472300 -28.530600 
8.877666 17.954406 -27.991410 7.300518 -85.482604 -2.073935 -5.364662 -2.296810 0.831785 0.760063 -2.911312 3.833856 -1.424739 1.990840 2.455135 -0.926783 6.379913 -4.897559 1.683600 8.173300 23.241700 0.038759 2.697655 -3.722492 10.785976 8.026072 14.380620 1.545486 -0.731826 -0.646443 2.487140 -20.873959 -25.913051 -0.041400 -1.312700 3.609500 -0.159625 2.434606 -4.400594 0.108297 3.301714 -5.120405 -3.447344 1.717558 3.777535 1.407289 4.893603 -6.793511 2.976441 6.471744 5.739991 -0.143000 3.374500 0.184600 -1.398464 -7.837547 2.887864 -53.149665 -3.484923 35.494770 14.189975 -21.758475 -3.493550 1.156822 -0.604872 -3.462973 -14.148174 -17.295890 4.438400 -7.125000 0.000000 0.000000 -27.606900 13.927600 23.064000 1.558984 8.672777 3.538743 62.391027 -6.044890 8.424049 -13.156493 18.243467 -3.894444 1.152717 3.049815 13.678677 15.433639 -37.345494 -9.990200 7.125000 0.000000 0.000000 59.464500 -60.824000 -28.399300 
8.883902 17.955713 -27.994629 3.161937 -85.569922 2.141969 -5.295860 -2.363752 0.789654 1.120990 -2.927901 3.843002 -1.418138 1.936127 2.427679 -0.998817 6.580752 -5.119979 1.596100 7.968500 22.618500 0.049397 2.596010 -3.673986 11.129251 8.149113 14.070567 1.550435 -0.817017 -0.534777 2.535348 -20.989424 -25.673702 -0.026300 -1.047900 2.880700 0.144945 2.502741 -4.365997 0.125558 3.371816 -5.156000 -3.506934 1.727934 3.742973 1.281156 4.806849 -6.890807 3.240694 6.324485 5.829887 -0.035700 3.303600 0.205100 -1.477781 -7.826522 2.931449 -50.886305 -3.693798 35.423315 13.947154 -21.451030 -3.367918 1.123696 -0.646023 -3.301006 -13.370057 -15.397555 3.719000 -7.125000 0.000000 0.000000 -27.466300 15.720200 21.685100 1.678227 8.577503 3.649639 59.935530 -5.938699 8.298046 -12.619548 17.740983 -3.754394 1.223731 3.074234 13.797213 14.546491 -37.508725 -9.388000 7.125000 0.000000 0.000000 58.958300 -61.187400 -28.554200 
8.892352 17.954406 -27.996439 -5.471791 -85.473026 11.032200 -5.096981 -2.485838 0.680351 1.762191 -3.212818 3.775441 -1.412643 1.852833 2.437223 -1.094515 6.827006 -5.526310 1.503100 7.743800 21.938500 0.177891 2.421586 -3.548427 11.870758 8.906016 13.687994 1.583412 -0.946352 -0.395470 2.557318 -21.237625 -26.097268 -0.028800 -1.096300 3.013700 0.808268 2.584994 -4.507530 0.170773 3.418942 -5.224415 -3.626476 1.701999 3.721864 1.386024 4.661852 -6.965344 3.302753 6.122843 5.976151 -0.034700 3.207700 0.251600 -1.547378 -7.814330 2.970020 -48.630606 -3.829858 35.350867 13.738532 -21.227984 -3.297014 1.133723 -0.635207 -3.244273 -12.608048 -15.316652 3.503700 -7.125000 0.000000 0.000000 -27.040000 15.813400 21.186300 1.809990 8.472947 3.763922 57.405485 -5.885766 7.951979 -12.062909 17.216455 -3.611211 1.296629 3.099635 14.120834 13.745301 -37.578763 -8.833300 7.125000 0.000000 0.000000 58.402300 -61.474800 -28.563500 
8.902512 17.957725 -28.002374 -18.179046 -85.142188 23.945610 -4.632475 -2.519100 0.545251 2.635159 -3.345219 3.659206 -1.372590 1.779340 2.515982 -1.076655 6.715082 -5.560224 1.611400 8.004900 22.728900 0.512076 2.329040 -3.422957 12.980133 9.723144 13.410732 1.625711 -1.081007 -0.279884 2.615648 -21.684184 -26.580095 -0.020900 -0.934500 2.568500 1.834146 2.594980 -4.603214 0.331849 3.286143 -5.270070 -3.607142 1.599763 3.737968 1.377039 4.662724 -7.101423 3.224265 6.131493 6.132341 -0.066900 3.217600 0.315300 -1.618051 -7.792084 2.989870 -46.616064 -3.821367 34.641012 13.492826 -20.968870 -3.214222 1.133927 -0.629780 -3.033037 -11.827337 -15.004622 3.232800 -7.125000 0.000000 0.000000 -26.632100 16.116000 20.575400 1.990083 8.371988 3.926100 54.187883 -5.378484 8.134747 -11.284024 16.451814 -3.409030 1.345943 3.164859 14.234864 13.247902 -37.483680 -8.476800 7.125000 0.000000 0.000000 57.929300 -61.599000 -28.406800 
